<svg xmlns="http://www.w3.org/2000/svg" viewBox="0 0 24 24" width="24" height="24" fill="none" stroke="#FF6500" stroke-width="2" stroke-linecap="round" stroke-linejoin="round">
  <path d="M19 17h2c.6 0 1-.4 1-1v-3c0-.9-.7-1.7-1.5-1.9C18.7 10.8 16 10 16 10s-2.7.8-4.5 1.1c-.8.2-1.5 1-1.5 1.9v3c0 .6.4 1 1 1h2" />
  <path d="M2 17h20v4c0 1.1-.9 2-2 2H4c-1.1 0-2-.9-2-2v-4z" />
  <circle cx="7" cy="21" r="2" fill="#000" stroke="#FF6500" stroke-width="2" />
  <circle cx="17" cy="21" r="2" fill="#000" stroke="#FF6500" stroke-width="2" />
</svg>
